<?xml version="1.0" encoding="UTF-8" standalone="no"?>
<svg xmlns="http://www.w3.org/2000/svg"
     xmlns:xlink="http://www.w3.org/1999/xlink"
     width="576px" height="432px" viewBox="0 0 576 432">
<title>glps_renderer figure</title>
<desc>
Creator: GL2PS 1.3.8, (C) 1999-2012 C. Geuzaine
For: Octave
CreationDate: Wed Oct  1 16:07:24 2014
</desc>
<defs>
</defs>
<g shape-rendering="crispEdges">
<polygon fill="#ffffff" points="122.04,384.48 474.12,384.48 122.04,32.4"/>
<polygon fill="#ffffff" points="474.12,384.48 474.12,32.4 122.04,32.4"/>
<polyline fill="none" stroke="#000000" stroke-width="0.5" stroke-dasharray="16,0" points="122.04,384.48 474.12,384.48"/>
<polyline fill="none" stroke="#000000" stroke-width="0.5" stroke-dasharray="16,0" points="122.04,32.4 474.12,32.4"/>
<polyline fill="none" stroke="#000000" stroke-width="0.5" stroke-dasharray="16,0" points="122.04,32.4 474.12,32.4"/>
<polyline fill="none" stroke="#000000" stroke-width="0.5" stroke-dasharray="16,0" points="122.04,384.48 474.12,384.48"/>
<polyline fill="none" stroke="#000000" stroke-width="0.5" stroke-dasharray="16,0" points="122.04,384.48 122.04,32.4"/>
<polyline fill="none" stroke="#000000" stroke-width="0.5" stroke-dasharray="16,0" points="474.12,384.48 474.12,32.4"/>
<polyline fill="none" stroke="#000000" stroke-width="0.5" stroke-dasharray="16,0" points="474.12,384.48 474.12,32.4"/>
<polyline fill="none" stroke="#000000" stroke-width="0.5" stroke-dasharray="16,0" points="122.04,384.48 122.04,32.4 122.04,32.4"/>
<polyline fill="none" stroke="#000000" stroke-width="0.5" stroke-dasharray="16,0" points="474.12,32.4 474.12,32.4"/>
<polyline fill="none" stroke="#000000" stroke-width="0.5" stroke-dasharray="16,0" points="474.12,384.48 474.12,384.48"/>
<polyline fill="none" stroke="#000000" stroke-width="0.5" stroke-dasharray="16,0" points="122.04,384.48 122.04,384.48 122.04,380.015"/>
<polyline fill="none" stroke="#000000" stroke-width="0.5" stroke-dasharray="16,0" points="122.04,32.4 122.04,36.865"/>
<polyline fill="none" stroke="#000000" stroke-width="0.5" stroke-dasharray="16,0" points="192.456,384.48 192.456,380.015"/>
<polyline fill="none" stroke="#000000" stroke-width="0.5" stroke-dasharray="16,0" points="192.456,32.4 192.456,36.865"/>
<polyline fill="none" stroke="#000000" stroke-width="0.5" stroke-dasharray="16,0" points="262.872,384.48 262.872,380.015"/>
<polyline fill="none" stroke="#000000" stroke-width="0.5" stroke-dasharray="16,0" points="262.872,32.4 262.872,36.865"/>
<polyline fill="none" stroke="#000000" stroke-width="0.5" stroke-dasharray="16,0" points="333.288,384.48 333.288,380.015"/>
<polyline fill="none" stroke="#000000" stroke-width="0.5" stroke-dasharray="16,0" points="333.288,32.4 333.288,36.865"/>
<polyline fill="none" stroke="#000000" stroke-width="0.5" stroke-dasharray="16,0" points="403.704,384.48 403.704,380.015"/>
<polyline fill="none" stroke="#000000" stroke-width="0.5" stroke-dasharray="16,0" points="403.704,32.4 403.704,36.865"/>
<polyline fill="none" stroke="#000000" stroke-width="0.5" stroke-dasharray="16,0" points="474.12,384.48 474.12,380.015"/>
<polyline fill="none" stroke="#000000" stroke-width="0.5" stroke-dasharray="16,0" points="474.12,32.4 474.12,36.865"/>
<text fill="#000000" x="122.04" y="389.481" font-size="10" text-anchor="middle" baseline-shift="-10" font-family="Helvetica">0</text>
<text fill="#000000" x="192.456" y="389.481" font-size="10" text-anchor="middle" baseline-shift="-10" font-family="Helvetica">0.2</text>
<text fill="#000000" x="262.872" y="389.481" font-size="10" text-anchor="middle" baseline-shift="-10" font-family="Helvetica">0.4</text>
<text fill="#000000" x="333.288" y="389.481" font-size="10" text-anchor="middle" baseline-shift="-10" font-family="Helvetica">0.6</text>
<text fill="#000000" x="403.704" y="389.481" font-size="10" text-anchor="middle" baseline-shift="-10" font-family="Helvetica">0.8</text>
<text fill="#000000" x="474.12" y="389.481" font-size="10" text-anchor="middle" baseline-shift="-10" font-family="Helvetica">1</text>
<polyline fill="none" stroke="#000000" stroke-width="0.5" stroke-dasharray="16,0" points="122.04,384.48 126.505,384.48"/>
<polyline fill="none" stroke="#000000" stroke-width="0.5" stroke-dasharray="16,0" points="474.12,384.48 469.655,384.48"/>
<polyline fill="none" stroke="#000000" stroke-width="0.5" stroke-dasharray="16,0" points="122.04,314.064 126.505,314.064"/>
<polyline fill="none" stroke="#000000" stroke-width="0.5" stroke-dasharray="16,0" points="474.12,314.064 469.655,314.064"/>
<polyline fill="none" stroke="#000000" stroke-width="0.5" stroke-dasharray="16,0" points="122.04,243.648 126.505,243.648"/>
<polyline fill="none" stroke="#000000" stroke-width="0.5" stroke-dasharray="16,0" points="474.12,243.648 469.655,243.648"/>
<polyline fill="none" stroke="#000000" stroke-width="0.5" stroke-dasharray="16,0" points="122.04,173.232 126.505,173.232"/>
<polyline fill="none" stroke="#000000" stroke-width="0.5" stroke-dasharray="16,0" points="474.12,173.232 469.655,173.232"/>
<polyline fill="none" stroke="#000000" stroke-width="0.5" stroke-dasharray="16,0" points="122.04,102.816 126.505,102.816"/>
<polyline fill="none" stroke="#000000" stroke-width="0.5" stroke-dasharray="16,0" points="474.12,102.816 469.655,102.816"/>
<polyline fill="none" stroke="#000000" stroke-width="0.5" stroke-dasharray="16,0" points="122.04,32.4 126.505,32.4"/>
<polyline fill="none" stroke="#000000" stroke-width="0.5" stroke-dasharray="16,0" points="474.12,32.4 469.655,32.4"/>
<text fill="#000000" x="117.039" y="384.48" font-size="10" text-anchor="end" baseline-shift="-5" font-family="Helvetica">0</text>
<text fill="#000000" x="117.039" y="314.064" font-size="10" text-anchor="end" baseline-shift="-5" font-family="Helvetica">0.2</text>
<text fill="#000000" x="117.039" y="243.648" font-size="10" text-anchor="end" baseline-shift="-5" font-family="Helvetica">0.4</text>
<text fill="#000000" x="117.039" y="173.232" font-size="10" text-anchor="end" baseline-shift="-5" font-family="Helvetica">0.6</text>
<text fill="#000000" x="117.039" y="102.816" font-size="10" text-anchor="end" baseline-shift="-5" font-family="Helvetica">0.8</text>
<text fill="#000000" x="117.039" y="32.4" font-size="10" text-anchor="end" baseline-shift="-5" font-family="Helvetica">1</text>
<text fill="#000000" x="298.08" y="402.481" font-size="10" text-anchor="middle" baseline-shift="-10" font-family="Helvetica">\varphi_{21}</text>
<text fill="#000000" x="98.0389" y="208.44" font-size="10" transform="rotate(-90, 98.0389, 208.44)" text-anchor="middle" baseline-shift="0" font-family="Helvetica">\varphi_{31}</text>
<polyline fill="none" stroke="#ff0000" stroke-width="0.5" points="177.852,214.309 177.279,216.072 175.779,217.162 173.925,217.162 172.425,216.072 171.852,214.309 172.425,212.546 173.925,211.456 175.779,211.456 177.279,212.546 177.852,214.309"/>
<polyline fill="none" stroke="#0000ff" stroke-width="0.5" points="174.852,214.309 157.665,184.673 149.458,176.807 145.791,175.32 143.289,175.733 141.125,176.685 139.112,177.773 137.218,178.837 135.455,179.843 133.833,180.751 132.359,181.567 131.036,182.281 129.858,182.908 128.82,183.456 127.908,183.923 127.107,184.325 126.415,184.678 125.814,184.979 125.291,185.238"/>
<polyline fill="none" stroke="#ff0000" stroke-width="0.5" points="210.079,214.247 209.506,216.01 208.006,217.1 206.151,217.1 204.651,216.01 204.079,214.247 204.651,212.484 206.151,211.394 208.006,211.394 209.506,212.484 210.079,214.247"/>
<polyline fill="none" stroke="#0000ff" stroke-width="0.5" points="207.079,214.247 195.12,183.3 180.682,166.446 177.448,158.69 180.161,153.361 187.296,147.307 200.401,138.271 222.737,125.564 250.283,116.732 266.588,119.122 268.544,132.305 261.541,151.775 250.307,167.241 238.688,172.066 228.102,167.237 220.865,157.39 221.599,147.135 230.773,138.589 243.327,134.653"/>
<polyline fill="none" stroke="#ff0000" stroke-width="0.5" points="242.399,214.309 241.826,216.073 240.326,217.162 238.472,217.162 236.972,216.073 236.399,214.309 236.972,212.546 238.472,211.456 240.326,211.456 241.826,212.546 242.399,214.309"/>
<polyline fill="none" stroke="#0000ff" stroke-width="0.5" points="239.399,214.309 238.93,206.23 234.244,198.459 225.244,187.023 212.398,170.833 204.353,156.218 208.511,144.139 223.876,132.413 245.021,124.949 259.267,127.282 261.602,139.068 255.653,154.697 245.873,165.393 235.757,167.046 227.307,161.319 223.76,152.554 227.667,144.1 237.146,138.374 246.452,137.93"/>
<polyline fill="none" stroke="#ff0000" stroke-width="0.5" points="274.671,214.311 274.098,216.074 272.598,217.164 270.744,217.164 269.244,216.074 268.671,214.311 269.244,212.547 270.744,211.457 272.598,211.457 274.098,212.547 274.671,214.311"/>
<polyline fill="none" stroke="#0000ff" stroke-width="0.5" points="271.671,214.311 268.4,220.24 268.176,222.566 268.835,223.764 269.689,224.593 270.543,225.261 271.333,225.839 272.028,226.362 272.645,226.823 273.183,227.233 273.636,227.61 274.029,227.937 274.379,228.213 274.671,228.464 274.922,228.687 275.128,228.889 275.317,229.047 275.47,229.194 275.611,229.313"/>
<polyline fill="none" stroke="#ff0000" stroke-width="0.5" points="306.941,214.313 306.368,216.076 304.868,217.166 303.014,217.166 301.514,216.076 300.941,214.313 301.514,212.55 303.014,211.46 304.868,211.46 306.368,212.55 306.941,214.313"/>
<polyline fill="none" stroke="#0000ff" stroke-width="0.5" points="303.941,214.313 287.561,228.17 282.124,232.148 280.181,232.991 279.328,232.928 278.829,232.637 278.473,232.315 278.189,232.01 277.949,231.74 277.74,231.505 277.555,231.31 277.409,231.132 277.279,230.979 277.169,230.846 277.068,230.737 276.976,230.649 276.897,230.572 276.828,230.507 276.772,230.448"/>
<polyline fill="none" stroke="#ff0000" stroke-width="0.5" points="177.853,182.034 177.28,183.798 175.78,184.887 173.926,184.887 172.426,183.798 171.853,182.034 172.426,180.271 173.926,179.181 175.78,179.181 177.28,180.271 177.853,182.034"/>
<polyline fill="none" stroke="#0000ff" stroke-width="0.5" points="174.853,182.034 163.49,170.809 159.621,167.549 157.893,166.836 156.712,167.012 155.583,167.548 154.347,168.289 152.95,169.17 151.377,170.17 149.642,171.274 147.771,172.435 145.803,173.67 143.774,174.932 141.735,176.165 139.735,177.349 137.821,178.471 136.021,179.51 134.35,180.457 132.83,181.307"/>
<polyline fill="none" stroke="#ff0000" stroke-width="0.5" points="210.125,182.039 209.552,183.802 208.052,184.892 206.198,184.892 204.698,183.802 204.125,182.039 204.698,180.276 206.198,179.186 208.052,179.186 209.552,180.276 210.125,182.039"/>
<polyline fill="none" stroke="#0000ff" stroke-width="0.5" points="207.125,182.039 193.32,163.977 191.213,152.956 198.999,143.123 216.483,131.093 241.996,120.589 261.602,119.96 266.902,130.375 262.002,148.225 251.794,164.223 240.436,170.648 229.951,167.32 222.388,158.313 222.066,148.347 230.04,139.851 241.929,135.543 250.487,137.825 252.141,145.69 248.176,154.646"/>
<polyline fill="none" stroke="#ff0000" stroke-width="0.5" points="242.399,182.036 241.826,183.799 240.326,184.889 238.472,184.889 236.972,183.799 236.399,182.036 236.972,180.272 238.472,179.183 240.326,179.183 241.826,180.272 242.399,182.036"/>
<polyline fill="none" stroke="#0000ff" stroke-width="0.5" points="239.399,182.036 227.681,176.168 216.759,163.852 213.188,151.342 220.741,140.136 236.453,131.643 251.327,130.397 257.28,137.846 254.632,150.339 247.082,160.723 238.208,164.076 230.524,160.553 226.709,153.427 229.033,146.009 236.366,140.746 244.286,139.814 248.408,143.712 247.624,150.192 243.505,155.567"/>
<polyline fill="none" stroke="#ff0000" stroke-width="0.5" points="274.672,182.036 274.099,183.799 272.599,184.889 270.745,184.889 269.245,183.799 268.672,182.036 269.245,180.273 270.745,179.183 272.599,179.183 274.099,180.273 274.672,182.036"/>
<polyline fill="none" stroke="#0000ff" stroke-width="0.5" points="271.672,182.036 257.6,200.163 251.215,206.084 247.6,206.994 244.302,205.492 240.04,201.916 233.551,195.265 223.38,183.434 210.617,167.347 205.006,153.536 211.644,141.6 228.81,130.351 249.165,124.989 260.425,129.76 260.391,143.031 253.225,157.949 243.251,166.378 233.464,165.904 226,159.085"/>
<polyline fill="none" stroke="#ff0000" stroke-width="0.5" points="306.943,182.037 306.37,183.801 304.87,184.891 303.016,184.891 301.516,183.801 300.943,182.037 301.516,180.274 303.016,179.184 304.87,179.184 306.37,180.274 306.943,182.037"/>
<polyline fill="none" stroke="#0000ff" stroke-width="0.5" points="303.943,182.037 281.187,210.42 273.59,220.567 271.81,224.08 271.781,225.52 272.227,226.295 272.75,226.837 273.252,227.269 273.69,227.65 274.071,227.974 274.407,228.254 274.701,228.494 274.952,228.708 275.151,228.91 275.335,229.067 275.484,229.213 275.616,229.335 275.734,229.437 275.83,229.53"/>
<polyline fill="none" stroke="#ff0000" stroke-width="0.5" points="177.852,149.762 177.279,151.526 175.779,152.615 173.925,152.615 172.425,151.526 171.852,149.762 172.425,147.999 173.925,146.909 175.779,146.909 177.279,147.999 177.852,149.762"/>
<polyline fill="none" stroke="#0000ff" stroke-width="0.5" points="174.852,149.762 184.661,145.999 198.841,137.735 221.849,124.95 250.357,115.654 267.375,117.647 269.66,130.564 262.783,150.384 251.45,166.863 239.625,172.671 228.776,168.42 220.841,158.575 220.641,148.08 229.299,139.083 242.186,134.403 251.415,136.761 253.154,145.169 248.923,154.868 241.864,160.538"/>
<polyline fill="none" stroke="#ff0000" stroke-width="0.5" points="210.127,149.762 209.554,151.525 208.054,152.615 206.2,152.615 204.7,151.525 204.127,149.762 204.7,147.998 206.2,146.909 208.054,146.909 209.554,147.998 210.127,149.762"/>
<polyline fill="none" stroke="#0000ff" stroke-width="0.5" points="207.127,149.762 217.176,137.96 236.152,128.168 253.915,126.275 260.81,134.322 257.876,148.81 249.455,161.731 239.485,166.705 230.427,163.469 224.864,155.639 225.99,147.073 233.688,140.28 243.361,137.853 249.406,141.122 249.657,148.345 245.549,155.334 239.648,158.501 234.272,157.088 231.548,152.701"/>
<polyline fill="none" stroke="#ff0000" stroke-width="0.5" points="242.406,149.755 241.833,151.518 240.333,152.608 238.479,152.608 236.979,151.518 236.406,149.755 236.979,147.991 238.479,146.901 240.333,146.901 241.833,147.991 242.406,149.755"/>
<polyline fill="none" stroke="#0000ff" stroke-width="0.5" points="239.406,149.755 239.404,149.77 239.39,149.756 239.407,149.754 239.409,149.761 239.403,149.765 239.398,149.77 239.392,149.747 239.405,149.743 239.422,149.773 239.388,149.799 239.373,149.775 239.372,149.746 239.396,149.73 239.433,149.74 239.437,149.764 239.405,149.77 239.393,149.769 239.393,149.748"/>
<polyline fill="none" stroke="#ff0000" stroke-width="0.5" points="274.672,149.762 274.099,151.526 272.599,152.616 270.745,152.616 269.245,151.526 268.672,149.762 269.245,147.999 270.745,146.909 272.599,146.909 274.099,147.999 274.672,149.762"/>
<polyline fill="none" stroke="#0000ff" stroke-width="0.5" points="271.672,149.763 256.669,172.861 243.349,182.152 231.659,179.485 219.987,168.546 212.939,155.589 216.635,143.909 230.281,133.926 246.889,129.613 256.468,134.153 256.512,145.65 250.228,157.753 241.43,163.95 232.983,162.641 227.299,156.324 227.243,148.623 233.184,142.217 241.634,139.439 247.568,141.676"/>
<polyline fill="none" stroke="#ff0000" stroke-width="0.5" points="306.941,149.771 306.368,151.534 304.868,152.624 303.014,152.624 301.514,151.534 300.941,149.771 301.514,148.007 303.014,146.918 304.868,146.918 306.368,148.007 306.941,149.771"/>
<polyline fill="none" stroke="#0000ff" stroke-width="0.5" points="303.941,149.771 277.414,190.443 264.577,208.433 260.775,214.802 260.237,217.299 260.826,218.59 261.835,219.52 263.017,220.352 264.26,221.161 265.506,221.956 266.716,222.73 267.86,223.477 268.927,224.179 269.89,224.841 270.765,225.443 271.539,225.994 272.218,226.495 272.806,226.946 273.319,227.345"/>
<polyline fill="none" stroke="#ff0000" stroke-width="0.5" points="177.852,117.489 177.279,119.252 175.779,120.342 173.925,120.342 172.425,119.252 171.852,117.489 172.425,115.725 173.925,114.635 175.779,114.635 177.279,115.725 177.852,117.489"/>
<polyline fill="none" stroke="#0000ff" stroke-width="0.5" points="174.852,117.489 211.822,107.117 258.673,91.2439 284.911,86.0931 292.709,87.4094 293.481,92.4536 290.665,101.661 284.361,117.28 273.786,141.171 260.099,165.706 246.356,178.574 234.362,178.77 222.792,169.709 214.836,157.24 216.83,145.604 228.844,135.591 244.838,130.664 255.05,134.134 256.043,144.673"/>
<polyline fill="none" stroke="#ff0000" stroke-width="0.5" points="210.106,117.504 209.533,119.267 208.033,120.357 206.179,120.357 204.679,119.267 204.106,117.504 204.679,115.741 206.179,114.651 208.033,114.651 209.533,115.741 210.106,117.504"/>
<polyline fill="none" stroke="#0000ff" stroke-width="0.5" points="207.106,117.504 247.698,102.101 276.029,97.0807 284.679,101.436 283.393,113.406 275.683,134.007 263.445,158.896 249.661,175.155 237.328,178.465 225.754,171.513 216.678,159.589 216.409,147.917 226.416,137.67 241.865,131.601 253.355,133.463 255.899,142.776 251.403,154.467 243.506,161.995 235.253,162.518"/>
<polyline fill="none" stroke="#ff0000" stroke-width="0.5" points="242.399,117.489 241.826,119.252 240.326,120.342 238.472,120.342 236.972,119.252 236.399,117.489 236.972,115.726 238.472,114.636 240.326,114.636 241.826,115.726 242.399,117.489"/>
<polyline fill="none" stroke="#0000ff" stroke-width="0.5" points="239.399,117.489 263.126,114.518 270.868,123.134 267.118,141.051 257.059,160.768 244.971,171.829 233.564,171.757 223.669,163.662 219.252,152.975 224.023,142.957 235.971,135.697 247.976,134.525 253.39,140.463 251.657,150.41 245.511,158.644 238.048,161.224 231.778,158.212 229.096,152.264 231.505,146.146"/>
<polyline fill="none" stroke="#ff0000" stroke-width="0.5" points="274.674,117.488 274.101,119.251 272.601,120.341 270.747,120.341 269.247,119.251 268.674,117.488 269.247,115.725 270.747,114.635 272.601,114.635 274.101,115.725 274.674,117.488"/>
<polyline fill="none" stroke="#0000ff" stroke-width="0.5" points="271.674,117.488 270.678,133.052 261.93,154.172 249.799,169.736 237.847,173.825 226.953,168.062 219.451,157.521 220.38,146.849 230.192,137.893 243.616,133.672 252.457,136.832 253.483,145.946 248.662,155.845 241.247,161.171 234.028,160.264 229.445,155.076 229.642,148.611 234.671,143.351 241.505,141.318"/>
<polyline fill="none" stroke="#ff0000" stroke-width="0.5" points="307.189,116.615 306.616,118.379 305.116,119.469 303.262,119.469 301.762,118.379 301.189,116.615 301.762,114.852 303.262,113.762 305.116,113.762 306.616,114.852 307.189,116.615"/>
<polyline fill="none" stroke="#0000ff" stroke-width="0.5" points="304.189,116.615 280.55,153.145 261.779,182.047 249.055,194.08 240.347,195.223 231.271,189.122 219.435,176.191 208.499,160.988 208.056,148.298 219.402,136.562 238.836,127.504 255.382,126.924 260.776,136.099 256.899,150.82 248.098,162.843 238.192,166.622 229.438,162.555 224.617,154.457 226.742,146.009"/>
<polyline fill="none" stroke="#ff0000" stroke-width="0.5" points="177.852,85.2155 177.279,86.9789 175.779,88.0687 173.925,88.0687 172.425,86.9789 171.852,85.2155 172.425,83.4522 173.925,82.3624 175.779,82.3624 177.279,83.4522 177.852,85.2155"/>
<polyline fill="none" stroke="#0000ff" stroke-width="0.5" points="174.852,85.2155 225.859,73.4876 282.005,60.4779 302.368,55.4319 308.586,52.6275 310.98,50.4044 312.24,48.409 313.126,46.5665 313.873,44.869 314.54,43.3255 315.142,41.9327 315.692,40.6907 316.187,39.5901 316.629,38.624 317.027,37.7768 317.381,37.0425 317.693,36.4044 317.969,35.8512 318.209,35.3703"/>
<polyline fill="none" stroke="#ff0000" stroke-width="0.5" points="210.094,85.2399 209.521,87.0033 208.021,88.0931 206.167,88.0931 204.667,87.0033 204.094,85.2399 204.667,83.4766 206.167,82.3868 208.021,82.3868 209.521,83.4766 210.094,85.2399"/>
<polyline fill="none" stroke="#0000ff" stroke-width="0.5" points="207.094,85.24 267.19,68.1842 296.695,61.1028 305.535,57.8194 308.707,55.4317 310.228,53.2712 311.236,51.201 312.091,49.215 312.875,47.3346 313.604,45.5844 314.271,43.9777 314.891,42.518 315.459,41.212 315.979,40.0494 316.443,39.0279 316.862,38.1318 317.237,37.346 317.563,36.6685 317.849,36.0793"/>
<polyline fill="none" stroke="#ff0000" stroke-width="0.5" points="242.399,85.2155 241.826,86.9789 240.326,88.0687 238.472,88.0687 236.972,86.9789 236.399,85.2155 236.972,83.4522 238.472,82.3624 240.326,82.3624 241.826,83.4522 242.399,85.2155"/>
<polyline fill="none" stroke="#0000ff" stroke-width="0.5" points="239.399,85.2155 282.956,73.8216 298.067,69.9652 302.867,68.3083 304.63,67.1649 305.477,66.0598 306.084,64.8443 306.653,63.4645 307.258,61.9043 307.915,60.1797 308.628,58.3154 309.381,56.3469 310.148,54.3067 310.933,52.2552 311.721,50.2396 312.489,48.308 313.23,46.4899 313.929,44.8038 314.578,43.2692"/>
<polyline fill="none" stroke="#ff0000" stroke-width="0.5" points="274.672,85.2155 274.099,86.9789 272.599,88.0687 270.745,88.0687 269.245,86.9789 268.672,85.2155 269.245,83.4522 270.745,82.3624 272.599,82.3624 274.099,83.4522 274.672,85.2155"/>
<polyline fill="none" stroke="#0000ff" stroke-width="0.5" points="271.672,85.2155 290.66,81.8749 296.025,82.8909 296.61,86.2867 294.899,92.1348 291.134,101.749 284.392,117.716 273.562,141.902 259.763,166.322 246.058,178.859 234.086,178.796 222.515,169.53 214.681,157.018 216.89,145.417 229.051,135.436 245.069,130.608 255.17,134.198 256.053,144.825 250.431,156.613"/>
<polyline fill="none" stroke="#ff0000" stroke-width="0.5" points="306.945,85.2154 306.373,86.9787 304.873,88.0685 303.018,88.0685 301.518,86.9787 300.945,85.2154 301.518,83.452 303.018,82.3622 304.873,82.3622 306.373,83.452 306.945,85.2154"/>
<polyline fill="none" stroke="#0000ff" stroke-width="0.5" points="303.945,85.2154 297.109,93.3029 290.871,105.023 282.293,123.755 270.052,149.816 255.715,171.727 242.566,180.398 230.772,177.258 219.501,166.29 213.929,153.79 219.113,142.46 233.298,133.298 248.749,130.529 256.399,136.388 255.16,148.143 248.378,159.105 239.715,163.689 231.819,161.254 227.224,154.624"/>
</g>
</svg>
